# xmcd
#
# Track frame offsets:
#	150
#	11697
#	25502
#	43561
#	59770
#	71762
#	84077
#	98276
#	115835
#	129793
#	143579
#	156223
#
# Disc length: 2224 seconds
# Revision: 0
# Processed by: cddbd v1.5.2PL0 Copyright (c) Steve Scherf et al.
# Submitted via: dBpowerAMP V12.0
#
DISCID=8908ae0c
DTITLE=Various Artist - Portrait of a Bluegrass Songwriter
DYEAR=2012
DGENRE=Country
TTITLE0=Russell Moore and IIIrd Tyme Out - Hard Rock Mountain Prison (‘Til I Die)
TTITLE1=Darrell Webb Band - When the Love We Have Is Gone
TTITLE2=Nu-Blu - Blue Ridge Mountain Snow
TTITLE3=Monroeville - Heartbreak Hall of Fame
TTITLE4=Carolina Road - I'll Be Over You
TTITLE5=Ray Edwards and Hard Rock Mountain - Windy Ridge [Instrumental]
TTITLE6=Ray Edwards and Hard Rock Mountain - My Name Is Jimmy Martin (Do You Remember Me?)
TTITLE7=Jeanette Williams - Blue Ridge Blue
TTITLE8=Grasstowne - Old Steamboats and Trains
TTITLE9=The Special Consensus - Gettin' Me Some Gone
TTITLE10=Ray Edwards and Hard Rock Mountain - Where My Darlin' Waits for Me
TTITLE11=Ray Edwards and Keith Pyrtle - Will I Stand on the Rock of Ages
EXTD=
EXTT0=
EXTT1=
EXTT2=
EXTT3=
EXTT4=
EXTT5=
EXTT6=
EXTT7=
EXTT8=
EXTT9=
EXTT10=
EXTT11=
PLAYORDER=
